<svg version="1.1" width="102" height="68" viewBox="0 0 102 68" xmlns="http://www.w3.org/2000/svg" xmlns:xlink="http://www.w3.org/1999/xlink" id="Ebene_1" overflow="hidden"><g><g id="Symbols"><g id="Logo"><g id="Page-1-Copy-5"><path d=" M 1.999 0.939 L 1.999 61.227 L 35.843 54.855 L 35.843 8.919 Z" id="Fill-1" fill="#B3B3B3"/><path d=" M 0 0 L 0 60.287 L 33.845 53.918 L 33.845 7.98 Z" id="Fill-2" fill="#5487BE"/><path d=" M 17.988 68 L 23.584 68 L 23.584 60.02 L 17.988 60.02 Z" id="Fill-3"/><path d=" M 26.183 68 L 31.779 68 L 31.779 60.02 L 26.183 60.02 Z" id="Fill-4" fill="#FE0000"/><path d=" M 34.044 68 L 39.641 68 L 39.641 60.02 L 34.044 60.02 Z" id="Fill-5" fill="#FFCC00"/><path d=" M 42.105 68 L 102 68 L 102 60.02 L 42.105 60.02 Z" id="Fill-6" fill="#5487BE"/><g id="Group-41" transform="matrix(1,0,0,1,1.12774,7.85742)"><path d=" M 75.023 31.139 L 81.752 31.139 C 82.046 31.134 82.175 31.285 82.169 31.559 L 82.169 32.212 C 82.183 32.491 82.08 32.676 81.727 32.656 L 80.988 32.656 C 80.525 32.633 80.256 32.843 80.259 33.388 L 80.259 44.986 C 80.269 45.377 80.285 45.758 80.988 45.722 L 83.65 45.722 C 85.421 45.72 84.191 43.208 85.65 43.175 L 86.615 43.175 L 86.615 46.562 C 86.628 46.81 86.533 46.966 86.232 46.948 L 75.255 46.948 C 74.905 46.96 74.804 46.763 74.798 46.486 L 74.798 46.06 C 74.843 45.784 75.052 45.777 75.271 45.786 L 75.79 45.786 C 76.283 45.797 76.548 45.555 76.554 45.017 L 76.554 33.417 C 76.53 32.913 76.28 32.649 75.787 32.647 L 75.058 32.647 C 74.755 32.647 74.645 32.483 74.641 32.227 L 74.641 31.539 C 74.646 31.254 74.795 31.146 75.023 31.139" id="Fill-7" fill="#5487BE"/><path d=" M 88.495 31.139 L 95.224 31.139 C 95.516 31.134 95.645 31.285 95.64 31.559 L 95.64 32.212 C 95.653 32.491 95.55 32.676 95.2 32.656 L 94.458 32.656 C 93.995 32.633 93.726 32.843 93.729 33.388 L 93.729 44.986 C 93.737 45.377 93.755 45.758 94.459 45.722 L 97.121 45.722 C 98.891 45.72 97.662 43.208 99.12 43.175 L 100.086 43.175 L 100.086 46.562 C 100.097 46.81 100.003 46.966 99.703 46.948 L 88.73 46.948 C 88.379 46.96 88.279 46.763 88.271 46.486 L 88.271 46.06 C 88.316 45.784 88.527 45.777 88.746 45.786 L 89.265 45.786 C 89.757 45.797 90.024 45.555 90.028 45.017 L 90.028 33.417 C 90.005 32.913 89.755 32.649 89.263 32.647 L 88.53 32.647 C 88.227 32.647 88.116 32.483 88.112 32.227 L 88.112 31.539 C 88.116 31.254 88.269 31.146 88.495 31.139" id="Fill-9" fill="#5487BE"/><path d=" M 53.773 46.96 L 41.472 46.96 C 41.24 46.993 41.071 46.913 41.06 46.546 L 41.06 45.018 C 41.082 44.942 41.023 44.951 41.273 44.645 L 50.282 32.666 L 43.686 32.666 C 42.669 32.662 43.149 34.612 42.226 34.634 L 41.355 34.634 L 41.355 31.55 C 41.372 31.18 41.559 31.069 41.826 31.075 L 53.743 31.075 C 54.075 31.07 54.174 31.23 54.143 31.476 L 54.143 32.947 L 44.721 45.657 L 51.86 45.657 C 52.821 45.642 52.436 43.075 53.177 43.025 L 53.767 43.025 C 53.981 43.019 54.173 43.046 54.155 43.415 L 54.096 46.559 C 54.111 46.844 54.004 46.96 53.773 46.96" id="Fill-11" fill="#5487BE"/><path d=" M 64.625 32.619 C 67.604 32.619 69.03 33.832 69.03 39.379 C 69.03 44.925 67.604 46.127 64.625 46.127 C 61.632 46.127 60.229 44.925 60.229 39.379 C 60.23 33.832 61.632 32.619 64.625 32.619 M 64.625 31.07 C 58.776 31.07 56.685 34.107 56.685 39.379 C 56.685 44.651 58.777 47.688 64.625 47.688 C 70.472 47.688 72.575 44.651 72.575 39.379 C 72.575 34.107 70.472 31.07 64.625 31.07" id="Fill-13" fill="#5487BE"/><path d=" M 35.019 2.341 L 36.009 5.217 L 39.033 5.276 L 36.621 7.114 L 37.5 10.027 L 35.019 8.286 L 32.538 10.027 L 33.416 7.114 L 31.005 5.276 L 34.029 5.217 Z" id="Fill-15" fill="#B3B3B3"/><path d=" M 35.185 35.839 L 36.175 38.715 L 39.199 38.773 L 36.788 40.609 L 37.666 43.523 L 35.185 41.783 L 32.705 43.523 L 33.583 40.609 L 31.171 38.773 L 34.195 38.715 Z" id="Fill-17" fill="#B3B3B3"/><path d=" M 47.9 19.073 L 48.583 21.059 L 50.67 21.099 L 49.006 22.367 L 49.612 24.378 L 47.9 23.176 L 46.187 24.378 L 46.793 22.367 L 45.128 21.099 L 47.216 21.059 Z" id="Fill-19" fill="#B3B3B3"/><path d=" M 44.418 9.181 L 45.27 11.656 L 47.873 11.707 L 45.797 13.287 L 46.553 15.794 L 44.418 14.296 L 42.284 15.794 L 43.04 13.287 L 40.965 11.707 L 43.567 11.656 Z" id="Fill-21" fill="#B3B3B3"/><path d=" M 5.674 15.994 L 7.053 20.004 L 11.269 20.086 L 7.907 22.647 L 9.132 26.708 L 5.673 24.281 L 2.214 26.708 L 3.439 22.647 L 0.076 20.086 L 4.292 20.004 Z" id="Fill-23" fill="#FFFFFF"/><path d=" M 22.093 0.061 L 23.248 3.414 L 26.773 3.483 L 23.961 5.625 L 24.986 9.021 L 22.093 6.991 L 19.201 9.021 L 20.225 5.625 L 17.414 3.483 L 20.938 3.414 Z" id="Fill-25" fill="#FFFFFF"/><path d=" M 21.709 36.242 L 22.827 39.489 L 26.24 39.557 L 23.517 41.63 L 24.509 44.917 L 21.709 42.951 L 18.908 44.917 L 19.899 41.63 L 17.177 39.557 L 20.591 39.489 Z" id="Fill-27" fill="#FFFFFF"/><path d=" M 11.753 4.897 L 13.03 8.605 L 16.928 8.682 L 13.819 11.05 L 14.951 14.806 L 11.753 12.561 L 8.555 14.806 L 9.687 11.05 L 6.578 8.682 L 10.476 8.605 Z" id="Fill-29" fill="#FFFFFF"/><path d=" M 9.852 28.893 L 11.159 32.688 L 15.15 32.768 L 11.966 35.191 L 13.126 39.037 L 9.852 36.738 L 6.577 39.037 L 7.736 35.191 L 4.552 32.768 L 8.544 32.688 Z" id="Fill-31" fill="#FFFFFF"/><path d=" M 33.953 1.67 L 34.943 4.547 L 37.966 4.606 L 35.555 6.443 L 36.433 9.356 L 33.953 7.615 L 31.472 9.356 L 32.35 6.443 L 29.938 4.606 L 32.962 4.547 Z" id="Fill-33" fill="#A2B9DB"/><path d=" M 34.119 35.168 L 35.11 38.044 L 38.133 38.104 L 35.721 39.939 L 36.6 42.854 L 34.119 41.111 L 31.638 42.854 L 32.517 39.939 L 30.105 38.104 L 33.129 38.044 Z" id="Fill-35" fill="#A2B9DB"/><path d=" M 46.834 18.402 L 47.517 20.387 L 49.605 20.428 L 47.94 21.696 L 48.547 23.707 L 46.834 22.505 L 45.121 23.707 L 45.727 21.696 L 44.063 20.428 L 46.15 20.387 Z" id="Fill-37" fill="#A2B9DB"/><path d=" M 43.353 8.511 L 44.205 10.986 L 46.806 11.037 L 44.732 12.617 L 45.487 15.124 L 43.352 13.626 L 41.217 15.124 L 41.973 12.617 L 39.898 11.037 L 42.5 10.986 Z" id="Fill-39" fill="#A2B9DB"/></g></g></g></g></g></svg>